<?xml version="1.0" encoding="utf-8"?>
<svg xmlns="http://www.w3.org/2000/svg" xmlns:xlink="http://www.w3.org/1999/xlink" version= "1.1" width="2000px" height="1128px" viewBox="0 0 2000 1128">
<g id="layer1">
<g>
<g>
<g style="fill:rgb(72,202,235); fill-opacity:1.0; stroke-linejoin: miter">
<path d="M1244.9194,538.4289L1244.9194,538.4289C1228.6958,677.6425,1102.6892,777.34576,963.47534,761.12213L963.47534,761.12213C824.26184,744.8986,724.55896,618.8918,740.7825,479.67816L740.7825,479.67816C757.0061,340.46442,883.0134,240.76141,1022.2263,256.98492L1022.2263,256.98492C1161.44,273.20844,1261.1431,399.21515,1244.9194,538.4289L1244.9194,538.4289 M1234.8081,537.25055L1234.8081,537.25055C1250.3809,403.6214,1154.6768,282.669,1021.04785,267.09625L1021.04785,267.09625C887.4197,251.52362,766.46655,347.2271,750.8938,480.8565L750.8938,480.8565C735.32104,614.48566,831.0249,735.4378,964.6538,751.01056L964.6538,751.01056C1098.2827,766.5833,1219.2354,670.8797,1234.8081,537.25055 Z"/>
</g>
<g style="fill:rgb(72,202,235); fill-opacity:1.0; stroke-linejoin: miter">
<path d="M1316.3116,509.88882L1316.3116,509.88882C1316.3115,698.42786,1171.3634,851.7395,991.9951,851.7394L991.9951,851.7394C812.62695,851.7394,667.6788,698.4276,667.67883,509.88858L667.67883,509.88858C667.67896,321.34952,812.62726,168.03787,991.9954,168.03793L991.9954,168.03793C1171.3634,168.03801,1316.3116,321.34973,1316.3116,509.88882L1316.3116,509.88882 M1306.1317,509.88882L1306.1317,509.88882C1306.1317,326.45215,1165.235,178.21793,991.99536,178.21786L991.99536,178.21786C818.75555,178.21779,677.8588,326.45197,677.8587,509.88858L677.8587,509.88858C677.85864,693.32495,818.75525,841.55945,991.9951,841.5596L991.9951,841.5596C1165.2351,841.5596,1306.1316,693.3252,1306.1317,509.88882 Z"/>
</g>
</g>
<g style="fill:rgb(72,202,235); fill-opacity:1.0; stroke-linejoin: miter">
<path d="M23.810034,85.39158L23.810034,85.39158L23.810034,85.39158L23.810034,85.39158L23.810034,85.39158L23.810034,85.39158L23.810034,85.39158L23.810034,85.39158L23.810034,85.39158L23.810034,85.39158 M23.81003,95.571495L23.81003,95.571495L23.81003,95.571495L23.81003,95.571495L23.81003,95.571495L23.81003,95.571495L23.81003,95.571495L23.81003,95.571495L23.81003,95.571495 Z"/>
</g>
<g style="fill:rgb(72,202,235); fill-opacity:1.0; stroke-linejoin: miter">
<path d="M584.0228,636.18994L584.0228,636.18994L584.0228,636.18994L584.0228,636.18994L584.0228,636.18994L584.0228,636.18994L584.0228,636.18994L584.0228,636.18994L584.0228,636.18994L584.0228,636.18994 M588.9452,645.1007L588.9452,645.1007L588.9452,645.1007L588.9452,645.1007L588.9452,645.1007L588.9452,645.1007L588.9452,645.1007L588.9452,645.1007L588.9452,645.1007 Z"/>
</g>
<g style="fill:rgb(72,202,235); fill-opacity:1.0; stroke-linejoin: miter">
<path d="M784.513,385.75952L778.08575,389.54358Q750.69727,449.53607,746.66,471.07712Q742.849,496.55072,743.4692,513.74023Q743.61816,523.5311,744.55273,533.64325Q747.5764,559.2045,749.12384,564.7023Q754.77014,591.6705,761.92755,610.88794Q765.5063,620.4967,769.46277,628.1677Q779.6846,645.6498,782.1823,646.8209Q793.376,657.6721,804.5031,659.62695L832.2881,648.52454Q834.3429,646.9922,832.9465,644.5233Q824.5772,635.9674,816.8081,625.0583Q810.8125,617.53827,798.3233,594.1084Q788.6177,573.6451,785.5396,554.0904L783.2213,540.08887L781.888,525.31305L781.5396,509.76294L782.1762,493.43848Q783.3053,476.72687,786.4043,458.46667L789.9958,439.8193L794.57227,420.39764L800.1397,399.80304Q800.02405,398.17126,797.6726,395.94135Q786.32404,388.22488,784.513,385.75952"/>
</g>
<g style="fill:rgb(72,202,235); fill-opacity:1.0; stroke-linejoin: miter">
<path d="M1049.3678,232.71626L1047.1632,232.72966Q1038.3363,232.8368,1029.3762,233.80116Q1025.9343,234.45337,1024.1873,236.09995L1022.864,237.9951Q1019.32745,250.05414,1015.1311,261.57397L1042.8073,272.518Q1048.8052,271.9434,1074.708,275.88818Q1084.8308,277.8638,1094.2726,280.97574Q1113.156,287.19962,1129.3154,297.9687Q1142.5433,306.8142,1153.0771,318.37354Q1198.7781,369.0867,1202.877,379.95776Q1204.2277,381.88116,1206.5104,382.13672Q1233.1389,369.7059,1232.4382,362.70508Q1228.9261,351.57587,1205.686,315.99326L1197.9503,305.1203Q1189.9286,294.62762,1180.7625,285.6561Q1171.5963,276.68457,1161.2858,269.2342L1150.6891,262.1641Q1139.8064,255.4743,1127.7793,250.30563Q1084.5889,231.82343,1049.3678,232.71626"/>
</g>
</g>
</g>
<g id="layer2">
<g style="fill:rgb(72,202,235); fill-opacity:1.0; stroke-linejoin: miter">
<path d="M840.804,546.59686L840.804,546.59686L843.44244,559.1032L843.3345,558.67346L846.92444,570.94055L846.78375,570.5202L851.30414,582.4757L851.1317,582.06757L856.55597,593.6412L856.3527,593.24744L862.6488,604.37067L862.41583,603.99365L869.5466,614.60126L869.28534,614.2432L877.20886,624.2726L876.9211,623.9356L885.5905,633.32745L885.27765,633.0137L894.6421,641.7128L894.3061,641.4239L904.31024,649.37915L903.95306,649.11676L914.53784,656.2811L914.1618,656.047L925.26514,662.3783L924.87195,662.1737L936.4283,667.6345L936.0207,667.46075L947.9618,672.019L947.5419,671.87683L959.7978,675.50574L959.3683,675.39636L971.8661,678.0742L971.42944,677.99805L984.0963,679.7094L983.655,679.6671L996.41547,680.40155L995.96533,680.39325L1009.1429,680.12354L1008.68677,680.151L1021.8015,678.8394L1021.34894,678.9029L1034.3191,676.5585L1033.8729,676.6575L1046.6168,673.29425L1046.1799,673.4282L1058.6178,669.06744L1058.1929,669.23566L1070.247,663.9048L1069.8365,664.10596L1081.4313,657.8383L1081.0382,658.0715L1092.1006,650.9063L1091.727,651.16974L1102.1882,643.152L1101.8369,643.4441L1111.631,634.62396L1111.3036,634.94293L1120.3691,625.37573L1120.0684,625.71967L1128.3489,615.46545L1128.0762,615.83203L1135.5198,604.9549L1135.2767,605.342L1141.8364,593.9101L1141.6249,594.3152L1147.2598,582.4002L1147.0809,582.82074L1151.7557,570.49744L1151.611,570.9309L1155.2961,558.2763C1156.1877,555.21533,1159.3917,553.4566,1162.4528,554.348C1165.5138,555.23956,1167.2727,558.44366,1166.3811,561.5047L1166.3811,561.5047L1162.6958,574.1593C1162.6532,574.30554,1162.6049,574.4501,1162.5509,574.59265L1162.5509,574.59265L1157.8759,586.9159C1157.8219,587.0583,1157.7622,587.19855,1157.697,587.33636L1157.697,587.33636L1152.062,599.2512C1151.9968,599.3889,1151.9263,599.52405,1151.8506,599.65625L1151.8506,599.65625L1145.2906,611.08813C1145.215,611.22034,1145.1338,611.3495,1145.0476,611.4752L1145.0476,611.4752L1137.6041,622.35236C1137.5182,622.4781,1137.4271,622.60034,1137.3313,622.71893L1137.3313,622.71893L1129.0509,632.9733C1128.9552,633.09186,1128.8549,633.2065,1128.75,633.31714L1128.75,633.31714L1119.6842,642.8842C1119.5793,642.9949,1119.4702,643.1013,1119.3569,643.20325L1119.3569,643.20325L1109.563,652.0234C1109.4498,652.12537,1109.3325,652.22284,1109.2115,652.3155L1109.2115,652.3155L1098.7505,660.3333C1098.6295,660.42596,1098.505,660.5139,1098.3771,660.59674L1098.3771,660.59674L1087.3147,667.76184C1087.1868,667.8446,1087.0557,667.9225,1086.9215,667.9949L1086.9215,667.9949L1075.3269,674.2626C1075.1929,674.33496,1075.0559,674.4021,1074.9165,674.46375L1074.9165,674.46375L1062.8627,679.79456C1062.7234,679.8562,1062.5815,679.91223,1062.4377,679.96277L1062.4377,679.96277L1049.9998,684.3234C1049.856,684.37384,1049.7103,684.4186,1049.5629,684.4575L1049.5629,684.4575L1036.819,687.82056C1036.6716,687.8595,1036.5227,687.8926,1036.3728,687.9197L1036.3728,687.9197L1023.40295,690.26434C1023.25305,690.29144,1023.102,690.3125,1022.9504,690.32776L1022.9504,690.32776L1009.8354,691.639C1009.6839,691.6543,1009.5317,691.6634,1009.37933,691.6665L1009.37933,691.6665L996.20184,691.93634C996.05194,691.93933,995.90173,691.93665,995.7519,691.928L995.7519,691.928L982.99146,691.19336C982.844,691.1849,982.6968,691.1708,982.5504,691.151L982.5504,691.151L969.8838,689.43964C969.7373,689.41986,969.59155,689.3945,969.44714,689.36346L969.44714,689.36346L956.9493,686.68555C956.80475,686.65454,956.66156,686.61804,956.51996,686.5761L956.51996,686.5761L944.2642,682.94727C944.12244,682.90533,943.9824,682.85785,943.84436,682.80524L943.84436,682.80524L931.9034,678.2471C931.7653,678.19434,931.62933,678.13635,931.4956,678.0732L931.4956,678.0732L919.9392,672.6123C919.80566,672.5492,919.6746,672.48096,919.5462,672.4077L919.5462,672.4077L908.4429,666.07654C908.31445,666.00336,908.189,665.92523,908.06665,665.8424L908.06665,665.8424L897.48157,658.67804C897.3592,658.5952,897.24,658.5076,897.1244,658.4158L897.1244,658.4158L887.1203,650.4606C887.0046,650.3685,886.8925,650.27216,886.78436,650.17163L886.78436,650.17163L877.4198,641.4724C877.3115,641.3718,877.2071,641.2671,877.10693,641.1585L877.10693,641.1585L868.4374,631.7667C868.3372,631.6581,868.24115,631.54565,868.14954,631.4297L868.14954,631.4297L860.2261,621.40045C860.1345,621.2844,860.04736,621.16504,859.9649,621.04236L859.9649,621.04236L852.83417,610.4349C852.7517,610.3122,852.674,610.18646,852.60114,610.05786L852.60114,610.05786L846.3051,598.9346C846.2322,598.80585,846.1644,598.67456,846.1017,598.5407L846.1017,598.5407L840.67755,586.9672C840.6149,586.8335,840.55725,586.6974,840.50494,586.559L840.50494,586.559L835.9845,574.6036C835.9322,574.46533,835.88525,574.32513,835.84375,574.1833L835.84375,574.1833L832.2538,561.91626C832.21234,561.7745,832.1762,561.63104,832.14575,561.4865L832.14575,561.4865L829.5074,548.98016C828.84924,545.8606,830.8446,542.7982,833.9642,542.14014C837.08374,541.48206,840.1459,543.4774,840.804,546.59686 Z"/>
</g>
</g>
<g id="layer3">
<g>
<g style="fill:rgb(72,202,235); fill-opacity:1.0; stroke-linejoin: miter">
<path d="M1131.2815,740.3916L1130.8538,740.42975Q1128.9597,740.52686,1121.6575,745.57825Q1109.7788,753.6252,1107.3074,756.3068L1104.1094,756.54675Q1109.5884,764.1697,1120.814,788.0921Q1121.2542,788.91516,1121.8792,788.9112Q1122.7864,789.20544,1127.5513,785.7841Q1143.7651,772.53564,1147.728,769.8619Q1148.5974,769.22345,1148.7222,768.0976Q1149.2783,765.58154,1142.0017,754.021Q1136.1785,745.08136,1133.7683,741.92926Q1132.8259,740.53186,1131.2815,740.3916"/>
</g>
<g style="fill:rgb(72,202,235); fill-opacity:1.0; stroke-linejoin: miter">
<path d="M1168.7595,714.20166L1168.3318,714.2398Q1166.4377,714.3369,1159.1355,719.3883Q1147.2566,727.43524,1144.7854,730.1169L1141.5874,730.3568Q1147.0664,737.97974,1158.292,761.90216Q1158.7319,762.7252,1159.3572,762.72125Q1160.2644,763.0155,1165.0293,759.5942Q1181.2432,746.3457,1185.206,743.67194Q1186.0754,743.0335,1186.2002,741.90765Q1186.7563,739.3916,1179.4797,727.83105Q1173.6565,718.8914,1171.2463,715.7393Q1170.304,714.3419,1168.7595,714.20166"/>
</g>
<g style="fill:rgb(72,202,235); fill-opacity:1.0; stroke-linejoin: miter">
<path d="M1203.1362,684.8778L1202.7451,684.95935Q1201.0061,685.25385,1194.8076,690.7094Q1184.706,699.42664,1182.7134,702.1708L1179.7856,702.7384Q1185.6707,709.1867,1198.6265,730.06854Q1199.1216,730.7812,1199.6987,730.7099Q1200.5686,730.8836,1204.5996,727.2081Q1218.1431,713.2177,1221.5139,710.31946Q1222.248,709.63574,1222.2415,708.5824Q1222.4832,706.19836,1214.5117,696.3073Q1208.1663,688.68,1205.5991,686.02924Q1204.5776,684.8404,1203.1362,684.8778"/>
</g>
<g style="fill:rgb(72,202,235); fill-opacity:1.0; stroke-linejoin: miter">
<path d="M1226.2373,654.5078L1225.8713,654.64984Q1224.2329,655.2154,1219.1025,661.5026Q1210.7136,671.58044,1209.2236,674.5615L1206.4768,675.5834Q1213.2205,680.8868,1229.1436,699.0441Q1229.7383,699.6552,1230.2864,699.4932Q1231.1575,699.5215,1234.4734,695.3092Q1245.3501,679.565,1248.1509,676.2123Q1248.7527,675.43134,1248.5767,674.4112Q1248.427,672.0611,1239.106,663.75604Q1231.7263,657.3838,1228.8105,655.22736Q1227.6287,654.2394,1226.2373,654.5078"/>
</g>
<g style="fill:rgb(72,202,235); fill-opacity:1.0; stroke-linejoin: miter">
<path d="M1263.6938,510.11456L1263.508,510.40314Q1262.6401,511.6459,1262.2451,518.73114Q1261.4949,530.1731,1261.9744,533.04785L1260.5571,535.1833Q1268.0542,535.466,1288.6543,540.1188Q1289.3894,540.2451,1289.6936,539.8487Q1290.3242,539.42065,1290.5032,534.73596Q1290.0984,518.007,1290.355,514.19525Q1290.3789,513.33344,1289.7297,512.70245Q1288.4155,511.11728,1277.5515,510.03717Q1269.0552,509.32565,1265.8838,509.3Q1264.54,509.20908,1263.6938,510.11456"/>
</g>
<g style="fill:rgb(72,202,235); fill-opacity:1.0; stroke-linejoin: miter">
<path d="M1262.9746,543.4749L1262.74,543.7336Q1261.6616,544.8363,1260.0833,551.8827Q1257.4221,563.24335,1257.4241,566.209L1255.6453,568.1162Q1263.124,569.6501,1283.0266,577.7561Q1283.7434,578.00543,1284.1147,577.6582Q1284.8193,577.3336,1285.78,572.661Q1288.1636,555.8007,1289.0571,552.01733Q1289.2246,551.1561,1288.6782,550.41455Q1287.6233,548.6041,1276.8984,545.7081Q1268.4878,543.577,1265.3086,543.0225Q1263.9751,542.7071,1262.9746,543.4749"/>
</g>
<g style="fill:rgb(72,202,235); fill-opacity:1.0; stroke-linejoin: miter">
<path d="M1253.7427,581.8944L1253.4597,582.14136Q1252.1699,583.18414,1249.6033,590.51245Q1245.3403,602.313,1244.9717,605.4806L1242.8333,607.29504Q1250.6287,609.8686,1270.8716,621.0149Q1271.6062,621.37067,1272.0461,621.0463Q1272.8391,620.7879,1274.4497,615.91754Q1279.1035,598.20844,1280.531,594.27936Q1280.8176,593.3806,1280.3269,592.5202Q1279.4263,590.4546,1268.3342,586.0207Q1259.6179,582.6929,1256.2922,581.70306Q1254.907,581.19934,1253.7427,581.8944"/>
</g>
<g style="fill:rgb(72,202,235); fill-opacity:1.0; stroke-linejoin: miter">
<path d="M1240.7051,619.6925L1240.4221,619.93945Q1239.1328,620.98236,1236.5662,628.3106Q1232.303,640.11115,1231.9343,643.27875L1229.7959,645.09326Q1237.5916,647.6668,1257.8342,658.81305Q1258.5688,659.1688,1259.0088,658.84454Q1259.802,658.5861,1261.4124,653.7157Q1266.0662,636.00665,1267.4937,632.07745Q1267.7803,631.1788,1267.2896,630.31836Q1266.3887,628.25275,1255.2966,623.81885Q1246.5806,620.49097,1243.2546,619.50116Q1241.8694,618.9975,1240.7051,619.6925"/>
</g>
</g>
</g>
</svg>