<?xml version="1.0" encoding="utf-8"?>
<svg xmlns="http://www.w3.org/2000/svg" xmlns:xlink="http://www.w3.org/1999/xlink" version= "1.1" width="2000px" height="1128px" viewBox="0 0 2000 1128">
<g id="layer1">
<g style="fill:rgb(78,188,207); fill-opacity:1.0; stroke-linejoin: miter">
<path d="M265.38318,478.83038L264.8993,487.68253Q261.4593,514.4344,244.76825,530.47363Q227.96172,546.49994,205.18655,543.4709Q183.45064,539.237,170.41876,518.69415Q166.24321,512.05383,163.54,504.22318L161.26802,496.1727Q159.39572,487.8635,159.37466,478.83038Q159.94304,451.1092,174.89925,432.7015Q189.85544,414.29385,212.3789,413.5943Q234.9024,414.29385,249.8586,432.7015Q264.8148,451.1092,265.38318,478.83038"/>
</g>
</g>
<g id="layer2">
<g style="fill:rgb(78,188,207); fill-opacity:1.0; stroke-linejoin: miter">
<path d="M1835.3483,420.7573L1834.8645,429.6095Q1831.4242,456.3613,1814.7333,472.40063Q1797.9269,488.42694,1775.1516,485.39795Q1753.4156,481.16406,1740.3838,460.6212Q1736.2081,453.9808,1733.505,446.15015L1731.233,438.09967Q1729.3608,429.79047,1729.3397,420.7573Q1729.9082,393.03607,1744.8643,374.6283Q1759.8207,356.2206,1782.3441,355.52106Q1804.8676,356.2206,1819.8237,374.6283Q1834.7799,393.03607,1835.3483,420.7573"/>
</g>
<g style="fill:rgb(78,188,207); fill-opacity:1.0; stroke-linejoin: miter">
<path d="M-691.3524,-470.78372L-691.3524,-470.78372L-691.3524,-470.78372L-691.3524,-470.78372L-691.3524,-470.78372L-691.3524,-470.78372L-691.3524,-470.78372L-691.3524,-470.78372L-691.3524,-470.78372L-691.3524,-470.78372 M-692.062,-453.23752L-692.062,-453.23752L-692.062,-453.23752L-692.062,-453.23752L-692.062,-453.23752L-692.062,-453.23752L-692.062,-453.23752L-692.062,-453.23752L-692.062,-453.23752 Z"/>
</g>
<g style="fill:rgb(78,188,207); fill-opacity:1.0; stroke-linejoin: miter">
<path d="M-691.5793,-465.1745L-691.5793,-465.1745L-691.5793,-465.1745L-691.5793,-465.1745L-691.5793,-465.1745L-691.5793,-465.1745L-691.5793,-465.1745L-691.5793,-465.1745L-691.5793,-465.1745L-691.5793,-465.1745 M-691.83514,-458.84674L-691.83514,-458.84674L-691.83514,-458.84674L-691.83514,-458.84674L-691.83514,-458.84674L-691.83514,-458.84674L-691.83514,-458.84674L-691.83514,-458.84674L-691.83514,-458.84674 Z"/>
</g>
<g style="fill:rgb(78,188,207); fill-opacity:1.0; stroke-linejoin: miter">
<path d="M222.93805,463.86243L222.93805,463.86243L222.93799,463.86407L210.21686,450.8664L1776.2578,421.2506C1783.1575,421.12012,1788.8564,426.60754,1788.9868,433.50708C1789.1174,440.40668,1783.6296,446.1057,1776.7302,446.23615L1776.7302,446.23615L210.68945,475.85187C207.2475,475.91705,203.93127,474.5592,201.52338,472.099C199.11542,469.63867,197.82916,466.29395,197.96826,462.8543L197.96826,462.8543L197.96832,462.85266C198.2472,455.95746,204.06287,450.5938,210.95807,450.87268C217.85327,451.1515,223.21692,456.96722,222.93805,463.86243 Z"/>
</g>
</g>
</svg>